<svg width="16" height="17" viewBox="0 0 16 17" fill="none" xmlns="http://www.w3.org/2000/svg">
<path d="M14.2271 0.896606H2.106C1.66803 0.897914 1.24838 1.07248 0.938686 1.38217C0.628995 1.69186 0.454433 2.11152 0.453125 2.54948V14.6706C0.454433 15.1085 0.628995 15.5282 0.938686 15.8379C1.24838 16.1476 1.66803 16.3221 2.106 16.3235H14.2271C14.6651 16.3221 15.0847 16.1476 15.3944 15.8379C15.7041 15.5282 15.8787 15.1085 15.88 14.6706V2.54948C15.8787 2.11152 15.7041 1.69186 15.3944 1.38217C15.0847 1.07248 14.6651 0.897914 14.2271 0.896606ZM13.6761 13.5687C13.6761 13.7148 13.6181 13.8549 13.5148 13.9582C13.4114 14.0616 13.2713 14.1196 13.1252 14.1196H10.9213C10.7752 14.1196 10.6351 14.0616 10.5318 13.9582C10.4284 13.8549 10.3704 13.7148 10.3704 13.5687C10.3704 13.4225 10.4284 13.2824 10.5318 13.1791C10.6351 13.0757 10.7752 13.0177 10.9213 13.0177C11.2426 13.0177 11.4035 12.6293 11.1763 12.4022L4.37443 5.60027C4.14727 5.37312 3.75888 5.534 3.75888 5.85524C3.75888 6.00136 3.70083 6.1415 3.59751 6.24482C3.49418 6.34815 3.35404 6.4062 3.20792 6.4062C3.0618 6.4062 2.92166 6.34815 2.81833 6.24482C2.71501 6.1415 2.65696 6.00136 2.65696 5.85524V3.6514C2.65696 3.50528 2.71501 3.36514 2.81833 3.26181C2.92166 3.15849 3.0618 3.10044 3.20792 3.10044H5.41176C5.55788 3.10044 5.69802 3.15849 5.80134 3.26181C5.90467 3.36514 5.96271 3.50528 5.96271 3.6514C5.96271 3.79752 5.90467 3.93766 5.80134 4.04099C5.69802 4.14431 5.55788 4.20236 5.41176 4.20236C5.09051 4.20236 4.92964 4.59075 5.15679 4.81791L11.9587 11.6198C12.1858 11.8469 12.5742 11.6861 12.5742 11.3648C12.5742 11.2187 12.6323 11.0786 12.7356 10.9752C12.8389 10.8719 12.9791 10.8139 13.1252 10.8139C13.2713 10.8139 13.4114 10.8719 13.5148 10.9752C13.6181 11.0786 13.6761 11.2187 13.6761 11.3648V13.5687Z" fill="black" fill-opacity="0.4"/>
</svg>
