<svg width="12" height="13" viewBox="0 0 12 13" fill="none" xmlns="http://www.w3.org/2000/svg">
<mask id="path-1-outside-1_145_11117" maskUnits="userSpaceOnUse" x="-0.549805" y="0.1875" width="13" height="13" fill="black">
<rect fill="white" x="-0.549805" y="0.1875" width="13" height="13"/>
<path d="M11.4555 1.28275C11.3285 1.15575 11.1225 1.15575 10.9955 1.28275L10.0483 2.22999C9.99007 2.20224 9.92863 2.17989 9.86448 2.16386L6.92085 1.43662C6.5903 1.354 6.23526 1.45232 5.99432 1.69326L0.735488 6.94344C0.355098 7.32385 0.355098 7.94284 0.735488 8.32328L4.415 12.0028C4.79542 12.3832 5.4144 12.3832 5.79484 12.0028L11.045 6.74391C11.286 6.50297 11.3843 6.14793 11.3016 5.81736L10.5744 2.87376C10.5584 2.80963 10.536 2.74816 10.5083 2.68993L11.4555 1.74269C11.5825 1.61569 11.5825 1.40976 11.4555 1.28275ZM10.6706 5.97516C10.6981 6.08534 10.6653 6.20367 10.585 6.284L5.33486 11.5428C5.20805 11.6696 5.00171 11.6696 4.8749 11.5428L1.1954 7.86332C1.06859 7.73651 1.06859 7.53017 1.1954 7.40336L6.45426 2.1532C6.51577 2.09169 6.59958 2.05806 6.68496 2.05806C6.71107 2.05806 6.73732 2.0612 6.7631 2.06764L9.52806 2.75022L8.74484 3.53344C8.38222 3.36073 7.93432 3.42408 7.63456 3.72384C7.25413 4.10427 7.25413 4.72324 7.63456 5.10367C7.82475 5.29388 8.07462 5.38899 8.32447 5.38899C8.57429 5.38899 8.82417 5.2939 9.01435 5.10367C9.31417 4.80387 9.3775 4.35599 9.20475 3.99338L9.98797 3.21016L10.6706 5.97516ZM8.55444 4.64376C8.42765 4.77055 8.22131 4.77057 8.0945 4.64376C7.96771 4.51697 7.96771 4.31061 8.0945 4.18382C8.15791 4.1204 8.24117 4.08873 8.32447 4.08873C8.40772 4.08873 8.49102 4.12043 8.55439 4.1838L8.55441 4.18382L8.55444 4.18384C8.68125 4.31063 8.68122 4.51697 8.55444 4.64376Z"/>
</mask>
<path d="M11.4555 1.28275C11.3285 1.15575 11.1225 1.15575 10.9955 1.28275L10.0483 2.22999C9.99007 2.20224 9.92863 2.17989 9.86448 2.16386L6.92085 1.43662C6.5903 1.354 6.23526 1.45232 5.99432 1.69326L0.735488 6.94344C0.355098 7.32385 0.355098 7.94284 0.735488 8.32328L4.415 12.0028C4.79542 12.3832 5.4144 12.3832 5.79484 12.0028L11.045 6.74391C11.286 6.50297 11.3843 6.14793 11.3016 5.81736L10.5744 2.87376C10.5584 2.80963 10.536 2.74816 10.5083 2.68993L11.4555 1.74269C11.5825 1.61569 11.5825 1.40976 11.4555 1.28275ZM10.6706 5.97516C10.6981 6.08534 10.6653 6.20367 10.585 6.284L5.33486 11.5428C5.20805 11.6696 5.00171 11.6696 4.8749 11.5428L1.1954 7.86332C1.06859 7.73651 1.06859 7.53017 1.1954 7.40336L6.45426 2.1532C6.51577 2.09169 6.59958 2.05806 6.68496 2.05806C6.71107 2.05806 6.73732 2.0612 6.7631 2.06764L9.52806 2.75022L8.74484 3.53344C8.38222 3.36073 7.93432 3.42408 7.63456 3.72384C7.25413 4.10427 7.25413 4.72324 7.63456 5.10367C7.82475 5.29388 8.07462 5.38899 8.32447 5.38899C8.57429 5.38899 8.82417 5.2939 9.01435 5.10367C9.31417 4.80387 9.3775 4.35599 9.20475 3.99338L9.98797 3.21016L10.6706 5.97516ZM8.55444 4.64376C8.42765 4.77055 8.22131 4.77057 8.0945 4.64376C7.96771 4.51697 7.96771 4.31061 8.0945 4.18382C8.15791 4.1204 8.24117 4.08873 8.32447 4.08873C8.40772 4.08873 8.49102 4.12043 8.55439 4.1838L8.55441 4.18382L8.55444 4.18384C8.68125 4.31063 8.68122 4.51697 8.55444 4.64376Z" fill="#FFFEFE"/>
<path d="M11.4555 1.28275C11.3285 1.15575 11.1225 1.15575 10.9955 1.28275L10.0483 2.22999C9.99007 2.20224 9.92863 2.17989 9.86448 2.16386L6.92085 1.43662C6.5903 1.354 6.23526 1.45232 5.99432 1.69326L0.735488 6.94344C0.355098 7.32385 0.355098 7.94284 0.735488 8.32328L4.415 12.0028C4.79542 12.3832 5.4144 12.3832 5.79484 12.0028L11.045 6.74391C11.286 6.50297 11.3843 6.14793 11.3016 5.81736L10.5744 2.87376C10.5584 2.80963 10.536 2.74816 10.5083 2.68993L11.4555 1.74269C11.5825 1.61569 11.5825 1.40976 11.4555 1.28275ZM10.6706 5.97516C10.6981 6.08534 10.6653 6.20367 10.585 6.284L5.33486 11.5428C5.20805 11.6696 5.00171 11.6696 4.8749 11.5428L1.1954 7.86332C1.06859 7.73651 1.06859 7.53017 1.1954 7.40336L6.45426 2.1532C6.51577 2.09169 6.59958 2.05806 6.68496 2.05806C6.71107 2.05806 6.73732 2.0612 6.7631 2.06764L9.52806 2.75022L8.74484 3.53344C8.38222 3.36073 7.93432 3.42408 7.63456 3.72384C7.25413 4.10427 7.25413 4.72324 7.63456 5.10367C7.82475 5.29388 8.07462 5.38899 8.32447 5.38899C8.57429 5.38899 8.82417 5.2939 9.01435 5.10367C9.31417 4.80387 9.3775 4.35599 9.20475 3.99338L9.98797 3.21016L10.6706 5.97516ZM8.55444 4.64376C8.42765 4.77055 8.22131 4.77057 8.0945 4.64376C7.96771 4.51697 7.96771 4.31061 8.0945 4.18382C8.15791 4.1204 8.24117 4.08873 8.32447 4.08873C8.40772 4.08873 8.49102 4.12043 8.55439 4.1838L8.55441 4.18382L8.55444 4.18384C8.68125 4.31063 8.68122 4.51697 8.55444 4.64376Z" stroke="white" stroke-width="0.4" mask="url(#path-1-outside-1_145_11117)"/>
</svg>
