<svg width="31" height="31" viewBox="0 0 31 31" fill="none" xmlns="http://www.w3.org/2000/svg">
<path d="M6.67285 11.1196C8.91651 11.1196 10.7354 9.30079 10.7354 7.05713C10.7354 4.81347 8.91651 2.99463 6.67285 2.99463C4.42919 2.99463 2.61035 4.81347 2.61035 7.05713C2.61035 9.30079 4.42919 11.1196 6.67285 11.1196Z" fill="#B9BCC2"/>
<path d="M6.36035 27.9946C8.43142 27.9946 10.1104 26.3157 10.1104 24.2446C10.1104 22.1736 8.43142 20.4946 6.36035 20.4946C4.28928 20.4946 2.61035 22.1736 2.61035 24.2446C2.61035 26.3157 4.28928 27.9946 6.36035 27.9946Z" fill="#B9BCC2"/>
<path d="M23.8604 27.9946C25.9314 27.9946 27.6104 26.3157 27.6104 24.2446C27.6104 22.1736 25.9314 20.4946 23.8604 20.4946C21.7893 20.4946 20.1104 22.1736 20.1104 24.2446C20.1104 26.3157 21.7893 27.9946 23.8604 27.9946Z" fill="#B9BCC2"/>
<path d="M24.0729 20.4696C22.8604 16.9946 19.5854 14.6571 15.8979 14.6571C15.8854 14.6571 15.8729 14.6571 15.8604 14.6571L11.4479 14.6696C9.54785 14.6946 7.84785 13.4071 7.33535 11.5571V9.25713C7.33535 8.73213 6.91035 8.30713 6.37285 8.30713C5.83535 8.30713 5.42285 8.73213 5.42285 9.25713V23.2821C5.42285 23.8071 5.84785 24.2321 6.37285 24.2321C6.89785 24.2321 7.33535 23.8071 7.33535 23.2821V15.0071C8.43535 15.9821 9.87285 16.5821 11.4354 16.5821C11.4479 16.5821 11.4479 16.5821 11.4604 16.5821L15.8729 16.5696C15.8854 16.5696 15.8854 16.5696 15.8979 16.5696C18.7604 16.5696 21.3229 18.3821 22.2604 21.0946C22.4104 21.4946 22.7729 21.7446 23.1729 21.7446C23.2729 21.7446 23.3854 21.7321 23.4854 21.6946C23.9854 21.5196 24.2479 20.9696 24.0729 20.4696Z" fill="#B9BCC2"/>
</svg>
