<svg width="31" height="31" viewBox="0 0 31 31" fill="none" xmlns="http://www.w3.org/2000/svg">
<path d="M14.1723 10.8127V14.3877L12.9098 13.9502C12.2723 13.7252 11.8848 13.5127 11.8848 12.4252C11.8848 11.5377 12.5473 10.8127 13.3598 10.8127H14.1723Z" fill="#B9BCC2"/>
<path d="M18.3354 19.0003C18.3354 19.8878 17.6729 20.6128 16.8604 20.6128H16.0479V17.0378L17.3104 17.4753C17.9479 17.7003 18.3354 17.9128 18.3354 19.0003Z" fill="#B9BCC2"/>
<path d="M20.3479 3.21277H9.87285C5.32285 3.21277 2.61035 5.92527 2.61035 10.4753V20.9503C2.61035 25.5003 5.32285 28.2128 9.87285 28.2128H20.3479C24.8979 28.2128 27.6104 25.5003 27.6104 20.9503V10.4753C27.6104 5.92527 24.8979 3.21277 20.3479 3.21277ZM17.9354 15.7128C18.9104 16.0503 20.2104 16.7628 20.2104 19.0003C20.2104 20.9253 18.7104 22.4878 16.8604 22.4878H16.0479V23.2128C16.0479 23.7253 15.6229 24.1503 15.1104 24.1503C14.5979 24.1503 14.1729 23.7253 14.1729 23.2128V22.4878H13.7229C11.6729 22.4878 10.0104 20.7503 10.0104 18.6253C10.0104 18.1128 10.4229 17.6878 10.9479 17.6878C11.4604 17.6878 11.8854 18.1128 11.8854 18.6253C11.8854 19.7253 12.7104 20.6128 13.7229 20.6128H14.1729V16.3753L12.2854 15.7128C11.3104 15.3753 10.0104 14.6628 10.0104 12.4253C10.0104 10.5003 11.5104 8.93777 13.3604 8.93777H14.1729V8.21277C14.1729 7.70027 14.5979 7.27527 15.1104 7.27527C15.6229 7.27527 16.0479 7.70027 16.0479 8.21277V8.93777H16.4979C18.5479 8.93777 20.2104 10.6753 20.2104 12.8003C20.2104 13.3128 19.7979 13.7378 19.2729 13.7378C18.7604 13.7378 18.3354 13.3128 18.3354 12.8003C18.3354 11.7003 17.5104 10.8128 16.4979 10.8128H16.0479V15.0503L17.9354 15.7128Z" fill="#B9BCC2"/>
</svg>
