<svg width="31" height="31" viewBox="0 0 31 31" fill="none" xmlns="http://www.w3.org/2000/svg">
<path d="M27.3133 17.1084V18.3584C27.3133 18.6959 27.0508 18.9709 26.7008 18.9834H24.8758C24.2133 18.9834 23.6133 18.4959 23.5633 17.8459C23.5258 17.4584 23.6758 17.0959 23.9258 16.8459C24.1508 16.6084 24.4633 16.4834 24.8008 16.4834H26.6883C27.0508 16.4959 27.3133 16.7709 27.3133 17.1084Z" fill="#B9BCC2"/>
<path d="M22.9885 15.9209C22.3635 16.5334 22.0635 17.4459 22.3135 18.3959C22.6385 19.5584 23.776 20.2959 24.976 20.2959H26.0635C26.751 20.2959 27.3135 20.8584 27.3135 21.5459V21.7834C27.3135 24.3709 25.201 26.4834 22.6135 26.4834H8.26348C5.67598 26.4834 3.56348 24.3709 3.56348 21.7834V13.3709C3.56348 11.8334 4.30098 10.4709 5.43848 9.62087C6.22598 9.02087 7.20098 8.67087 8.26348 8.67087H22.6135C25.201 8.67087 27.3135 10.7834 27.3135 13.3709V13.9209C27.3135 14.6084 26.751 15.1709 26.0635 15.1709H24.7885C24.0885 15.1709 23.451 15.4459 22.9885 15.9209Z" fill="#B9BCC2"/>
<path d="M20.7508 6.08335C21.0883 6.42085 20.8008 6.94585 20.3258 6.94585L10.7258 6.93335C10.1758 6.93335 9.88831 6.25835 10.2883 5.87085L12.3133 3.83335C14.0258 2.13335 16.8008 2.13335 18.5133 3.83335L20.7008 6.04585C20.7133 6.05835 20.7383 6.07085 20.7508 6.08335Z" fill="#B9BCC2"/>
</svg>
