<svg width="31" height="31" viewBox="0 0 31 31" fill="none" xmlns="http://www.w3.org/2000/svg">
<path d="M8.88716 6.0152L8.97466 10.7527C8.98716 11.4027 8.57466 12.2652 8.04966 12.6527L4.94966 15.0027C2.96216 16.5027 3.28716 18.3402 5.66216 19.0902L9.69966 20.3527C10.3747 20.5652 11.0872 21.3027 11.2622 21.9902L12.2247 25.6652C12.9872 28.5652 14.8872 28.8527 16.4622 26.3027L18.6622 22.7402C19.0622 22.0902 20.0122 21.6027 20.7622 21.6402L24.9372 21.8527C27.9247 22.0027 28.7747 20.2777 26.8247 18.0027L24.3497 15.1277C23.8872 14.5902 23.6747 13.5902 23.8872 12.9152L25.1622 8.8652C25.8997 6.4902 24.5747 5.1777 22.2122 5.9527L18.5247 7.1652C17.8997 7.3652 16.9622 7.2277 16.4372 6.8402L12.5872 4.0652C10.4997 2.5777 8.83716 3.4527 8.88716 6.0152Z" fill="#B9BCC2"/>
<path d="M3.70058 26.4278L7.48809 22.6403C7.85059 22.2778 8.45059 22.2778 8.81309 22.6403C9.17559 23.0028 9.17559 23.6028 8.81309 23.9653L5.02559 27.7528C4.83809 27.9403 4.60059 28.0278 4.36309 28.0278C4.12559 28.0278 3.88808 27.9403 3.70058 27.7528C3.33808 27.3903 3.33808 26.7903 3.70058 26.4278Z" fill="#B9BCC2"/>
</svg>
