<svg width="194" height="40" viewBox="0 0 194 40" fill="none" xmlns="http://www.w3.org/2000/svg">
<path d="M49.4594 23.8386C49.4594 24.7572 49.1244 25.424 49.1244 25.424C46.3907 22.5544 31.276 7.02661 31.276 7.02661L24.097 14.2057H18.418V20.4204C18.418 20.4204 7.87102 31.1128 4.43485 34.5643C2.6843 31.2468 1.78223 27.8504 1.78223 23.8386C1.78223 10.6729 12.4551 0 25.6208 0C38.7865 0 49.4594 10.6729 49.4594 23.8386Z" fill="#EC2D7D"/>
<path d="M19.5908 21.0799L0.856445 39.8928L31.2541 16.6928L52.2608 30.9056L31.2541 9.06812L23.8516 16.3226V15.3601H19.5908V21.0799Z" fill="black"/>
<rect x="29.3867" y="19.7183" width="4.36628" height="5.63519" rx="0.972823" fill="black"/>
<path d="M69.8048 26.9463H67.7082L72.4191 13.8554H74.7011L79.412 26.9463H77.3154L73.6144 16.2332H73.5122L69.8048 26.9463ZM70.1563 21.8199H76.9575V23.4818H70.1563V21.8199ZM80.7625 26.9463V13.8554H85.4287C86.4471 13.8554 87.2909 14.0407 87.9599 14.4115C88.6289 14.7822 89.1297 15.2893 89.462 15.9328C89.7944 16.572 89.9606 17.2922 89.9606 18.0933C89.9606 18.8987 89.7923 19.6231 89.4557 20.2666C89.1233 20.9058 88.6204 21.4129 87.9471 21.7879C87.2781 22.1586 86.4365 22.344 85.4223 22.344H82.2135V20.6693H85.2433C85.8868 20.6693 86.4088 20.5585 86.8093 20.3369C87.2099 20.1111 87.5039 19.8042 87.6914 19.4165C87.8789 19.0287 87.9727 18.5876 87.9727 18.0933C87.9727 17.599 87.8789 17.1601 87.6914 16.7765C87.5039 16.393 87.2078 16.0926 86.803 15.8753C86.4024 15.6579 85.874 15.5493 85.2177 15.5493H82.7376V26.9463H80.7625ZM91.4533 26.9463H89.3567L94.0676 13.8554H96.3496L101.061 26.9463H98.9639L95.263 16.2332H95.1607L91.4533 26.9463ZM91.8049 21.8199H98.606V23.4818H91.8049V21.8199ZM102.411 26.9463V13.8554H107.077C108.091 13.8554 108.933 14.0301 109.602 14.3795C110.275 14.729 110.778 15.2126 111.111 15.8305C111.443 16.4442 111.609 17.1537 111.609 17.9591C111.609 18.7602 111.441 19.4655 111.104 20.0748C110.772 20.68 110.269 21.1508 109.596 21.4875C108.927 21.8241 108.085 21.9925 107.071 21.9925H103.536V20.2922H106.892C107.531 20.2922 108.051 20.2006 108.451 20.0173C108.856 19.8341 109.152 19.5677 109.34 19.2183C109.527 18.8689 109.621 18.4491 109.621 17.9591C109.621 17.4648 109.525 17.0365 109.334 16.6743C109.146 16.3121 108.85 16.0351 108.445 15.8433C108.045 15.6473 107.518 15.5493 106.866 15.5493H104.386V26.9463H102.411ZM108.873 21.04L112.108 26.9463H109.858L106.687 21.04H108.873ZM112.827 15.5557V13.8554H122.958V15.5557H118.874V26.9463H116.905V15.5557H112.827ZM124.657 26.9463V13.8554H129.323C130.342 13.8554 131.186 14.0407 131.855 14.4115C132.524 14.7822 133.024 15.2893 133.357 15.9328C133.689 16.572 133.855 17.2922 133.855 18.0933C133.855 18.8987 133.687 19.6231 133.35 20.2666C133.018 20.9058 132.515 21.4129 131.842 21.7879C131.173 22.1586 130.331 22.344 129.317 22.344H126.108V20.6693H129.138C129.781 20.6693 130.303 20.5585 130.704 20.3369C131.105 20.1111 131.399 19.8042 131.586 19.4165C131.774 19.0287 131.867 18.5876 131.867 18.0933C131.867 17.599 131.774 17.1601 131.586 16.7765C131.399 16.393 131.102 16.0926 130.698 15.8753C130.297 15.6579 129.769 15.5493 129.112 15.5493H126.632V26.9463H124.657ZM135.631 26.9463V13.8554H137.606V19.5443H144.132V13.8554H146.114V26.9463H144.132V21.2382H137.606V26.9463H135.631ZM156.869 13.8554H158.85V22.4655C158.85 23.3817 158.635 24.1934 158.204 24.9008C157.774 25.604 157.169 26.1579 156.389 26.5628C155.609 26.9633 154.695 27.1636 153.647 27.1636C152.603 27.1636 151.691 26.9633 150.911 26.5628C150.131 26.1579 149.526 25.604 149.096 24.9008C148.665 24.1934 148.45 23.3817 148.45 22.4655V13.8554H150.425V22.3057C150.425 22.898 150.555 23.4243 150.815 23.8845C151.079 24.3447 151.452 24.7069 151.934 24.9711C152.415 25.2311 152.986 25.3611 153.647 25.3611C154.312 25.3611 154.885 25.2311 155.366 24.9711C155.852 24.7069 156.223 24.3447 156.479 23.8845C156.739 23.4243 156.869 22.898 156.869 22.3057V13.8554ZM161.182 26.9463V13.8554H163.157V20.1068H163.317L168.807 13.8554H171.294L166.014 19.7488L171.313 26.9463H168.935L164.704 21.0976L163.157 22.8746V26.9463H161.182ZM172.595 26.9463V13.8554H180.802V15.5557H174.57V19.5443H180.374V21.2382H174.57V25.246H180.879V26.9463H172.595ZM182.255 15.5557V13.8554H192.386V15.5557H188.302V26.9463H186.333V15.5557H182.255Z" fill="black"/>
</svg>
