<svg width="18" height="18" viewBox="0 0 18 18" fill="none" xmlns="http://www.w3.org/2000/svg">
<path d="M14.3696 11.5396C16.2021 11.5396 17.704 10.0378 17.704 8.16655C17.704 6.29534 16.2021 4.79346 14.3696 4.79346C12.537 4.79346 11.0352 6.29534 11.0352 8.16655C11.0352 10.0378 12.537 11.5396 14.3696 11.5396ZM14.3696 6.26017C15.4318 6.26017 16.2759 7.10432 16.2759 8.20172C16.2759 9.26395 15.4318 10.1433 14.3696 10.1433C13.3073 10.1433 12.4632 9.26395 12.4632 8.20172C12.4632 7.1395 13.3073 6.26017 14.3696 6.26017Z" fill="#949499"/>
<path d="M17.0814 15.8272L16.0191 15.3524C15.2489 15.0218 14.1866 14.9866 13.4163 15.3172C12.4104 15.873 11.4361 15.3172 11.4361 15.3172C10.6658 14.9866 9.71263 14.9866 8.94234 15.3172C8.1404 15.6971 7.25755 15.2082 7.25755 15.2082C6.48727 14.8776 5.53408 14.8776 4.76379 15.2082L4.06736 15.4896C4.16233 10.4845 5.83305 7.1782 6.68775 5.80645C7.12741 6.46418 7.62335 7.44199 7.62335 8.38815C7.62335 8.79264 7.95398 9.11975 8.35495 9.11975C8.75944 9.11975 9.09007 8.78912 9.05138 8.34946C9.05138 6.87571 8.25295 5.50748 7.72184 4.75829C8.2424 4.34325 9.17448 3.83324 10.191 4.42767C10.5568 4.64926 10.9964 4.50153 11.1793 4.17091C11.4009 3.80511 11.2532 3.36544 10.9226 3.18254C9.49104 2.37708 8.13688 2.77805 7.18369 3.40413C6.81789 2.19418 6.01243 0.470705 4.32413 0.0310423C3.95833 -0.0779941 3.55384 0.104906 3.4448 0.505878C3.33576 0.910367 3.55384 1.31134 3.95833 1.42038C4.90448 1.6701 5.4778 2.76398 5.78381 3.69255C3.2619 3.47448 0.785721 5.83811 0.659098 5.96825C0.402335 6.26018 0.367162 6.69984 0.659098 6.9953C0.951034 7.25206 1.3907 7.25206 1.68615 6.9953C2.30871 6.40791 3.99702 5.12409 5.46373 5.12409C4.47185 6.73853 2.7132 10.3297 2.67451 15.7569H1.21131C0.806825 15.7569 0.479716 16.0875 0.479716 16.4885C0.479716 16.893 0.810342 17.2201 1.21131 17.2201H3.40963C4.07791 17.2201 4.52461 16.8226 5.316 16.5588C5.70291 16.3724 6.37471 16.3548 7.00079 16.6679C7.77108 16.9985 8.72427 16.9985 9.49456 16.6679C9.49456 16.6679 10.1839 16.2915 11.218 16.7769C11.9883 17.1075 12.9415 17.1075 13.7118 16.7769C14.7494 16.3056 15.4353 16.6679 15.4353 16.6679L16.4975 17.1462C16.8633 17.294 17.303 17.1462 17.4507 16.7804C17.5949 16.4146 17.4507 15.975 17.0814 15.8272Z" fill="#949499"/>
</svg>
