<svg width="15" height="17" viewBox="0 0 15 17" fill="none" xmlns="http://www.w3.org/2000/svg">
<path d="M14.3073 5.68966C13.476 2.03216 10.2856 0.385498 7.48311 0.385498C7.48311 0.385498 7.48311 0.385498 7.47519 0.385498C4.68061 0.385498 1.48227 2.02425 0.651024 5.68175C-0.275226 9.76675 2.22644 13.2263 4.49061 15.4034C5.32977 16.2109 6.40644 16.6147 7.48311 16.6147C8.55977 16.6147 9.63644 16.2109 10.4677 15.4034C12.7319 13.2263 15.2335 9.77466 14.3073 5.68966ZM7.48311 9.65591C6.10561 9.65591 4.98936 8.53966 4.98936 7.16216C4.98936 5.78466 6.10561 4.66841 7.48311 4.66841C8.86061 4.66841 9.97686 5.78466 9.97686 7.16216C9.97686 8.53966 8.86061 9.65591 7.48311 9.65591Z" fill="black" fill-opacity="0.4"/>
</svg>
