<svg width="15" height="16" viewBox="0 0 15 16" fill="none" xmlns="http://www.w3.org/2000/svg">
<path d="M12.9631 10.9016C12.0569 10.1266 11.1373 9.65714 10.2422 10.431L9.7078 10.8987C9.31677 11.2382 8.58973 12.8246 5.77877 9.591C2.96839 6.36149 4.6408 5.85866 5.03242 5.52207L5.56979 5.05377C6.46015 4.27815 6.12414 3.30174 5.48199 2.29666L5.09447 1.68787C4.44939 0.685124 3.74694 0.0265784 2.85424 0.801028L2.3719 1.2225C1.97735 1.50991 0.874511 2.44417 0.606995 4.21902C0.28504 6.34861 1.30066 8.78728 3.62752 11.463C5.95146 14.1399 8.2268 15.4845 10.3821 15.4611C12.1734 15.4418 13.2552 14.4806 13.5935 14.1312L14.0776 13.7091C14.968 12.9352 14.4148 12.1473 13.508 11.3705L12.9631 10.9016Z" fill="black"/>
</svg>
